<?xml version="1.0" encoding="UTF-8"?>
<svg xmlns="http://www.w3.org/2000/svg" style="display: none;">
  <symbol id="nested-circle-plus" viewBox="0 0 20 20">
    <path fill-rule="evenodd" d="M10 1A9 9 0 0 1 10 19A9 9 0 0 1 10 1ZM10 3A7 7 0 0 1 10 17A7 7 0 0 1 10 3Z"/>
    <path d="M6 9h8v2H6zM9 6h2v8H9z"/>
  </symbol>
  <symbol id="nested-circle-minus" viewBox="0 0 20 20">
    <path fill-rule="evenodd" d="M10 1A9 9 0 0 1 10 19A9 9 0 0 1 10 1ZM10 3A7 7 0 0 1 10 17A7 7 0 0 1 10 3Z"/>
    <path d="M6 9h8v2H6z"/>
  </symbol>
</svg>
